inDegrees=no
num_controls=7
num_derivatives=13
num_iterations=36
num_multipliers=7
num_parameters=0
num_slacks=7
num_states=26
objective=0.426592
objective_accelerations=0.057409
objective_balance=0.001115
objective_effort=0.015337
objective_height=0.346726
objective_ligament=0.006006
solver_duration=585.015129
status=Solve_Succeeded
success=true
DataType=double
version=3
OpenSimVersion=4.5
endheader
time	/jointset/ground_pelvis/pelvis_tilt/value	/jointset/ground_pelvis/pelvis_tx/value	/jointset/ground_pelvis/pelvis_ty/value	/jointset/hip_l/hip_flexion_l/value	/jointset/hip_l/hip_adduction_l/value	/jointset/hip_l/hip_rotation_l/value	/jointset/back/lumbar_extension/value	/jointset/patellofemoral_l/patellar_flexion_l/value	/jointset/knee_l/knee_flexion_l/value	/jointset/knee_l/knee_adduction_l/value	/jointset/knee_l/knee_rotation_l/value	/jointset/ankle_l/ankle_angle_l/value	/jointset/subtalar_l/subtalar_angle_l/value	/jointset/ground_pelvis/pelvis_tilt/speed	/jointset/ground_pelvis/pelvis_tx/speed	/jointset/ground_pelvis/pelvis_ty/speed	/jointset/hip_l/hip_flexion_l/speed	/jointset/hip_l/hip_adduction_l/speed	/jointset/hip_l/hip_rotation_l/speed	/jointset/back/lumbar_extension/speed	/jointset/patellofemoral_l/patellar_flexion_l/speed	/jointset/knee_l/knee_flexion_l/speed	/jointset/knee_l/knee_adduction_l/speed	/jointset/knee_l/knee_rotation_l/speed	/jointset/ankle_l/ankle_angle_l/speed	/jointset/subtalar_l/subtalar_angle_l/speed	/forceset/tau_hip_flexion_l	/forceset/tau_hip_adduction_l	/forceset/tau_hip_rotation_l	/forceset/tau_knee_flexion_l	/forceset/tau_ankle_angle_l	/forceset/tau_subtalar_angle_l	/forceset/tau_lumbar_extension	lambda_cid13_p0	lambda_cid13_p1	lambda_cid13_p2	lambda_cid13_p3	lambda_cid13_p4	lambda_cid13_p5	lambda_cid14_p0	/jointset/ground_pelvis/pelvis_tilt/accel	/jointset/ground_pelvis/pelvis_tx/accel	/jointset/ground_pelvis/pelvis_ty/accel	/jointset/hip_l/hip_flexion_l/accel	/jointset/hip_l/hip_adduction_l/accel	/jointset/hip_l/hip_rotation_l/accel	/jointset/back/lumbar_extension/accel	/jointset/patellofemoral_l/patellar_flexion_l/accel	/jointset/knee_l/knee_flexion_l/accel	/jointset/knee_l/knee_adduction_l/accel	/jointset/knee_l/knee_rotation_l/accel	/jointset/ankle_l/ankle_angle_l/accel	/jointset/subtalar_l/subtalar_angle_l/accel	gamma_cid13_p0	gamma_cid13_p1	gamma_cid13_p2	gamma_cid13_p3	gamma_cid13_p4	gamma_cid13_p5	gamma_cid14_p0
1	-0.4473600479941891	-0.0005627411042842874	0.5985634148563641	1.683887714702223	-0.3480110610746101	0.1377910973233698	-0.4361678340943297	1.497778045622567	1.497778045622511	0.05265611425994912	-0.1743625348125717	0.4348746413527603	0.2468003704376001	-0.1414900224912915	0.004029284998316214	0.04065096801409632	0.002861878355209578	-0.001884618734766655	-0.05594469630149997	-0.002901132633029767	-0.1739158894901565	-0.1739158894901285	-0.01475978656581559	0.000729371121202967	-0.05055080651877542	-0.03341923289107612	-0.2336056054555936	0.08623591170524547	-0.01039502837336829	-0.2941695744980184	-0.01125460062413679	-0.01819698490650786	0.2052008772821757	-39.83562244598328	25.96964639957609	-17.09074783521586	2.45385157054327	-541.432209649774	-27.67222930845132	-0.02377454690270756	1.399407812339016	0.2731428195375192	1.985762564968473	-6.557689704793195	-0.2404221519590734	-1.538493223698765	-0.0424723923355772	-5.552231433899659	-5.552231433899668	-0.8843893446928521	-0.01991021493072786	-0.8758057345241361	-0.9049636304232365	-4.437803113836495e-09	-1.273763048819759e-07	-5.942760257496622e-08	-1.023397384539952e-08	-6.315892275210532e-09	-1.52210892726701e-07	3.522396431338741e-09
1.01	-0.4487056060948948	-0.0005087442225141483	0.5990689702712565	1.683589495434939	-0.3480414079034851	0.1371565852291156	-0.4361977964630619	1.495761743995871	1.495761743995723	0.05246331154617997	-0.1743548820001009	0.4343253783591225	0.246421827953969	-0.127603840295011	0.006780898931973722	0.06044844757776924	-0.06250085107765239	-0.004182106201548373	-0.07094845176715792	-0.003065840127173691	-0.2293302830684361	-0.2293302830684227	-0.02379728223940259	0.0007978938949868754	-0.05930673299039118	-0.04228148712467272	-0.2341848749713563	0.08617785874987985	-0.01040665671726428	-0.2929639664089697	-0.01185488078356155	-0.0181195355434431	0.2055575519467625	-39.97388288870003	25.88631992139877	-16.99305343914856	2.371323126960621	-541.2428073609951	-27.60846639830873	-0.0237917080924672	1.385886797955032	0.2777882253027555	1.974988555337952	-6.524832727826047	-0.2240014427122294	-1.479933070664204	0.0003552213138243903	-5.533921258357678	-5.533921258359942	-0.9129212651648093	0.01971268407655042	-0.876235562128561	-0.8756542173512941	-4.773680868125111e-09	-1.632353425370788e-07	-8.018947923716816e-08	-1.7879839322282e-08	-9.907433736302178e-09	-1.911846735751051e-07	4.270616221878739e-09
1.02	-0.4499117696987033	-0.0004269076924032701	0.5997721500624397	1.682637795240239	-0.3480946474867658	0.1363723123076763	-0.4362286408768269	1.49319172284568	1.493191722845462	0.05218023555836591	-0.1743466481277907	0.4336884062090324	0.2459549033484974	-0.1136111231114313	0.009597214666463967	0.0801758432723212	-0.1278343071222537	-0.006463169615315423	-0.08589686173941112	-0.003077541650588189	-0.2846597941893384	-0.2846597941893397	-0.03281444137191337	0.0008455830905152956	-0.06809263780793612	-0.05109565725920457	-0.2347641444873132	0.08611980579451173	-0.01041828506123696	-0.2917583583199123	-0.01245516094294794	-0.01804208618035724	0.2059142266111497	-40.11432110451818	25.80008835924701	-16.89114179283577	2.279452584543082	-541.1649851446982	-27.5495847374674	-0.02381105040150031	1.420714809798855	0.2860831797040653	1.971745791144278	-6.551835027141064	-0.2371373413561434	-1.527424125017818	-0.01187119818892988	-5.535254942424234	-5.535254942424243	-0.8803220364776116	-0.02407693058183809	-0.8818014037099761	-0.8953468106102952	-5.357765644264274e-09	-1.977070728467961e-07	-9.89297800030886e-08	-2.500211673376764e-08	-1.352573137336943e-08	-2.253215324571008e-07	4.480103052859609e-09
1.03	-0.4509774666974528	-0.0003165409491876871	0.6006721612767625	1.681033082221045	-0.3481705884564026	0.1354388438111589	-0.4362586233945546	1.490068958471343	1.490068958471205	0.05180717219615037	-0.1743380390839664	0.4329633915772952	0.2454001228309823	-0.0995094136064372	0.01249138369055871	0.09980562118526683	-0.1930868351464175	-0.008720511172082135	-0.1007828639765763	-0.002872443220030994	-0.3398661941083226	-0.3398661941083354	-0.04179154349607753	0.0008718588950817623	-0.07691833769650183	-0.059849315510712	-0.2352330664176384	0.08608513692944025	-0.01040844964418891	-0.2902575973143583	-0.01310912814702899	-0.017943945318942	0.2062255343404581	-40.24732111431578	25.68886140561112	-16.76844684804696	2.168447301718059	-540.8178486287826	-27.46790964299206	-0.02383675820872185	1.407727502591265	0.2933647538757162	1.955473579537229	-6.508743501496986	-0.2193337133256084	-1.467102877797603	0.04367816689108114	-5.50930046926125	-5.509300469263067	-0.9054202182118947	0.01528711149753919	-0.8841734322214699	-0.863654564565227	-5.9443831451162e-09	-2.321646469591114e-07	-1.176494524435368e-07	-3.211905140989209e-08	-1.714430203264052e-08	-2.594090349925005e-07	4.684092608742935e-09
1.04	-0.4519015809048018	-0.0001767763177088532	0.6017678462278478	1.678776487559302	-0.3482689630717052	0.1343569323713163	-0.4362851593672453	1.486394936507292	1.486394936507246	0.05134453462913122	-0.174329305826988	0.4321498761165161	0.2447581498845233	-0.08529456483178147	0.01547679231911411	0.1193105906249256	-0.2582106356283085	-0.01094989874839351	-0.1155854504030124	-0.002388232660934565	-0.3949113121323369	-0.3949113121323617	-0.05072928233328319	0.0008704257205141063	-0.08579280361673088	-0.06853414304798926	-0.2357019883480956	0.08605046806433254	-0.01039861422715259	-0.288756836308801	-0.01376309535109196	-0.01784580445757476	0.2065368420696301	-40.38274718714237	25.57485350920263	-16.64164660363149	2.047983547396355	-540.5835913671187	-27.39182848870026	-0.02386467676436323	1.443342663731198	0.3043311005961868	1.946784096486906	-6.526089518686506	-0.2315465452650777	-1.510740962872017	0.04395122752009008	-5.502998563430262	-5.502998563430397	-0.8724493790859104	-0.02961872640867269	-0.891554610042666	-0.8815806677642745	-6.81732982892051e-09	-2.644808379255393e-07	-1.332076613274592e-07	-3.826788649971087e-08	-2.07817203429367e-08	-2.883590804296861e-07	4.335829734074995e-09
1.05	-0.4526829367884363	-6.659152872967315e-06	0.6030578715001083	1.675869420403918	-0.3483894523127101	0.1331273818749875	-0.4363052443889966	1.482171392658933	1.482171392658828	0.05079285553270139	-0.1743206932052246	0.4312473511006518	0.2440297459180203	-0.07095319404745408	0.01856619458708213	0.1386652589670437	-0.3231700477761864	-0.01314027541968924	-0.1303077557079993	-0.00156090553709612	-0.4497582746308415	-0.4497582746308365	-0.05959355437399681	0.0008500154824916674	-0.09472201346864834	-0.0771292674749742	-0.2361055489644291	0.08605568900744577	-0.01037020093282101	-0.286922609845935	-0.01453869719883075	-0.01772901756565337	0.2068352526759263	-40.53439444117062	25.4388597566611	-16.49223392137451	1.928795717721321	-540.0977059587692	-27.28560467082886	-0.02389913477048682	1.433045274621811	0.3141689415861934	1.92542255337083	-6.475956719488301	-0.2116036550356165	-1.450456033916963	0.1123033816282025	-5.469668447165586	-5.469668447161102	-0.891494419120174	0.01138788756556818	-0.8950913886682048	-0.8458056781860155	-7.699224299692081e-09	-2.967301106686581e-07	-1.486670744752403e-07	-4.438646847745761e-08	-2.441972764232741e-08	-3.171485803325524e-07	3.97030897095233e-09
1.06	-0.453320176766452	0.0001949368649800375	0.6045405663258484	1.672313741195734	-0.3485316094058192	0.1317511121816749	-0.4363150201541148	1.477400554514768	1.477400554514597	0.05015291805536607	-0.1743123566738165	0.4302552365430933	0.2432159252376432	-0.0564713837095967	0.02177256292253783	0.1578445013210169	-0.3879330461900709	-0.01528346916993101	-0.1449292897971861	-0.0003263813407522835	-0.5043701712935489	-0.5043701712935136	-0.06838095851695328	0.0008152076470533014	-0.1037107119566433	-0.08561748582277555	-0.2365091095807258	0.08606090995052042	-0.01034178763844753	-0.2850883833830713	-0.0153142990465824	-0.01761223067380367	0.2071336632822625	-40.68879670345716	25.30024778948369	-16.33886198791586	1.799914713564078	-539.7265732744388	-27.18593479122437	-0.02393586137288543	1.471430574437234	0.327724314093698	1.91169889885791	-6.486806771887806	-0.2221099610542804	-1.490586719711997	0.1253906420227555	-5.455985396270812	-5.455985396270879	-0.8570757995344727	-0.03249824589185991	-0.9034523372582046	-0.860199451927569	-8.844870364725966e-09	-3.248912421336426e-07	-1.612064945314656e-07	-4.86825520386502e-08	-2.798517797164444e-08	-3.409668952815593e-07	3.519630482916759e-09
1.07	-0.4538122559932367	0.0004292235532141024	0.6062140713965822	1.66811190014045	-0.3486949376456583	0.1302290953786746	-0.4363099173676777	1.472084819642153	1.472084819642088	0.04942558215358145	-0.1743044388513167	0.4291728710747978	0.2423177765000059	-0.04195885993650888	0.02510847238988471	0.1768167185377897	-0.4523527700535541	-0.01737123361879306	-0.1594536050136448	0.001466870383894553	-0.5587328318105528	-0.5587328318105186	-0.07707098060166864	0.0007690243768475118	-0.1127784361803044	-0.09399130420847777	-0.2366498942744835	0.0860888868870347	-0.01028526067816734	-0.2831761689997553	-0.01583187403794851	-0.0174984911058474	0.2072932518648756	-40.73932512531111	25.14683933175921	-16.18549299934445	1.563807043310665	-539.0972877158979	-27.06888608356265	-0.02398036975736245	1.439001317830595	0.3400682770609411	1.884007630172956	-6.407198382093037	-0.2004337923032847	-1.430302396076046	0.224282209213286	-5.419811273029613	-5.419811273029802	-0.87271103007441	0.009366361401224653	-0.9108587988848964	-0.8227522019379936	-1.000454576988019e-08	-3.528349192753222e-07	-1.735905958062252e-07	-5.288169419470692e-08	-3.154676888765968e-08	-3.64520785498978e-07	3.064422328662416e-09
1.08	-0.4541596423744636	0.0006975781389224483	0.6080761035389003	1.663268333208855	-0.3488788083510806	0.1285624457288037	-0.436283284110318	1.466226777185644	1.466226777185664	0.04861179690753826	-0.1742969739157072	0.4279993430974777	0.241336533744502	-0.02753281459998008	0.02858614241739401	0.1955499156379847	-0.5162782214576268	-0.01939196228769386	-0.1738558591686356	0.003979712969623854	-0.6128316880721371	-0.6128316880721035	-0.08567082737175719	0.0007246302660891743	-0.1219432137625605	-0.1022362893960378	-0.2367906789680768	0.08611686382352382	-0.01022873371781849	-0.281263954616444	-0.01634944902934652	-0.01738475153795266	0.2074528404476637	-40.79295162782766	24.99088926431464	-16.02819588080333	1.318322795975548	-538.5840863960487	-26.95980818598477	-0.02402736160468263	1.45413488712548	0.3560764261261388	1.863894875542324	-6.387952280005704	-0.2087028050620167	-1.466174507418407	0.2693088142387987	-5.403224545186897	-5.403224545186841	-0.8390407366090984	-0.03214041400235858	-0.922863008977274	-0.8344328122991496	-1.069097981970839e-08	-3.80980573180321e-07	-1.78543978664965e-07	-5.896112030720864e-08	-3.432791450101189e-08	-3.80200745447494e-07	7.41758235146745e-10
